<?xml version="1.0" encoding="utf-8"?>
<!-- Generator: Adobe Illustrator 16.0.0, SVG Export Plug-In . SVG Version: 6.00 Build 0)  -->
<!DOCTYPE svg PUBLIC "-//W3C//DTD SVG 1.1//EN" "http://www.w3.org/Graphics/SVG/1.1/DTD/svg11.dtd">
<svg version="1.1" xmlns="http://www.w3.org/2000/svg" xmlns:xlink="http://www.w3.org/1999/xlink" x="0px" y="0px"
	 width="274.469px" height="132.979px" viewBox="0 0 274.469 132.979" enable-background="new 0 0 274.469 132.979"
	 xml:space="preserve">
<g id="text-font">
	
		<text id="A-left_1_" transform="matrix(1 0 0 1 269.3477 153.1631)" fill="#7AECF0" font-family="'BodoniSvtyTwoSCITCTT-Book'" font-size="180">A</text>
</g>
<g id="bike">
	<g id="wheel-back">
		<path fill="#7AECF0" d="M121.894,85.383c11.151,0,20.223,9.072,20.223,20.223s-9.072,20.223-20.223,20.223
			s-20.223-9.072-20.223-20.223S110.743,85.383,121.894,85.383 M121.894,81.383c-13.378,0-24.223,10.845-24.223,24.223
			s10.845,24.223,24.223,24.223s24.223-10.845,24.223-24.223S135.272,81.383,121.894,81.383L121.894,81.383z"/>
	</g>
	<g id="wheel-front">
		<path fill="#7AECF0" d="M168.894,23.383c11.151,0,20.223,9.072,20.223,20.223s-9.072,20.223-20.223,20.223
			s-20.223-9.072-20.223-20.223S157.743,23.383,168.894,23.383 M168.894,19.383c-13.378,0-24.223,10.845-24.223,24.223
			s10.845,24.223,24.223,24.223s24.223-10.845,24.223-24.223S182.272,19.383,168.894,19.383L168.894,19.383z"/>
	</g>
	<polyline id="frame1" fill="none" stroke="#7AECF0" stroke-width="4" stroke-miterlimit="10" points="134.017,37.739 
		111.663,70.507 121.894,105.606 146.117,81.383 139.751,40.348 	"/>
	
		<line id="verticalbar" fill="none" stroke="#7AECF0" stroke-width="4" stroke-miterlimit="10" x1="106.013" y1="67.829" x2="144.671" y2="82.829"/>
	<path id="seat" fill="#7AECF0" d="M96.951,71.672c-3.333-2.958,7.667-7.625,13.5-13.458c2.667,0.167-2.833,9.615-2.833,9.615
		S100.284,74.631,96.951,71.672z"/>
	<path id="frontbar" fill="none" stroke="#7AECF0" stroke-width="3" stroke-miterlimit="10" d="M113.284,38.547l4.667-6.833
		c0,0,2.387-3,3.943-2.333s1.557,3,1.557,3l1,3l25.333,8.226l7.167,0.774l6-0.774l5.943-0.726"/>
	<ellipse id="frontwheelcenter" fill="#7AECF0" cx="170.2" cy="43.52" rx="2.583" ry="2.861"/>
	
		<line id="pedalbar" fill="none" stroke="#7AECF0" stroke-width="2" stroke-miterlimit="10" x1="141.089" y1="74.21" x2="154.951" y2="90.377"/>
	<polygon id="pedaltop" fill="#7AECF0" points="143.117,76.544 137.597,75.064 141.639,71.023 	"/>
	<polygon id="pedalbottom" fill="#7AECF0" points="155.401,94.582 159.553,90.653 154.075,89.023 	"/>
</g>
<g id="text-outlines">
	<g id="A-right">
		<path fill="#7AECF0" d="M272.473,128.653c0,1.024-0.899,1.536-2.699,1.536c-1.201,0-2.281-0.062-3.24-0.18l-22.859-0.72
			l-22.861,0.72c-0.841,0.118-1.741,0.18-2.7,0.18c-2.402,0-3.6-0.627-3.6-1.884c0-1.384,1.62-2.076,4.86-2.076
			c10.558-0.118,15.84-1.175,15.84-3.175c0-0.115-0.123-0.585-0.368-1.409l-1.471-4.761l-0.923-2.512
			c-1.08-3.724-3.715-11.95-7.912-24.683h-38.478c-7.194,19.201-10.789,30.24-10.789,33.12c0,1.682,0.72,2.7,2.16,3.06
			c0.36,0.121,3.358,0.36,9,0.72c3.479,0.121,5.22,0.72,5.22,1.8c0,1.201-1.561,1.8-4.68,1.8c-5.521,0-11.942-0.242-19.26-0.72
			c-1.8-0.118-3.662-0.18-5.58-0.18c-1.921,0-3.78,0.2-5.58,0.599c-0.959,0.2-1.738,0.301-2.34,0.301c-1.679,0-2.52-0.54-2.52-1.625
			c0-1.083,1.89-1.685,5.67-1.806c3.78-0.118,6.508-0.692,8.19-1.716c1.679-1.023,2.998-2.978,3.96-5.87
			c15.435-44.308,28.001-79.889,37.693-106.74c0.278-1.415,0.838-3.007,1.676-4.778l0.771-3.285c0.36-1.319,0.838-1.98,1.44-1.98
			c0.36,0,0.658,0.36,0.9,1.08c1.558,4.68,5.099,14.462,10.617,29.34c4.32,11.641,15.058,40.86,32.22,87.66
			c0.959,2.717,2.188,4.444,3.69,5.183c1.499,0.743,4.59,1.173,9.272,1.297C270.912,127.064,272.473,127.632,272.473,128.653z
			 M223.519,85.549c-1.952-5.389-5.181-14.31-9.689-26.767l-8.648-24.95c-5.012,13.261-11.039,30.499-18.079,51.716H223.519z"/>
	</g>
	<g id="A-left">
		<path fill="#7AECF0" d="M122.473,128.653c0,1.024-0.9,1.536-2.7,1.536c-1.201,0-2.281-0.062-3.24-0.18l-22.86-0.72l-22.86,0.72
			c-0.841,0.118-1.741,0.18-2.7,0.18c-2.402,0-3.6-0.627-3.6-1.884c0-1.384,1.62-2.076,4.86-2.076
			c10.558-0.118,15.84-1.175,15.84-3.175c0-0.115-0.124-0.585-0.369-1.409l-1.471-4.761l-0.923-2.512
			c-1.08-3.724-3.715-11.95-7.912-24.683H36.062c-7.194,19.201-10.789,30.24-10.789,33.12c0,1.682,0.72,2.7,2.16,3.06
			c0.36,0.121,3.358,0.36,9,0.72c3.479,0.121,5.22,0.72,5.22,1.8c0,1.201-1.561,1.8-4.68,1.8c-5.521,0-11.942-0.242-19.26-0.72
			c-1.8-0.118-3.662-0.18-5.58-0.18c-1.921,0-3.78,0.2-5.58,0.599c-0.959,0.2-1.738,0.301-2.34,0.301c-1.679,0-2.52-0.54-2.52-1.625
			c0-1.083,1.89-1.685,5.67-1.806c3.78-0.118,6.508-0.692,8.19-1.716c1.679-1.023,2.998-2.978,3.96-5.87
			c15.435-44.308,28.001-79.889,37.693-106.74c0.278-1.415,0.838-3.007,1.676-4.778l0.771-3.285c0.36-1.319,0.838-1.98,1.44-1.98
			c0.36,0,0.658,0.36,0.9,1.08c1.558,4.68,5.099,14.462,10.617,29.34c4.32,11.641,15.058,40.86,32.22,87.66
			c0.959,2.717,2.188,4.444,3.69,5.183c1.499,0.743,4.59,1.173,9.272,1.297C120.912,127.064,122.473,127.632,122.473,128.653z
			 M73.519,85.549c-1.952-5.389-5.181-14.31-9.689-26.767l-8.648-24.95c-5.012,13.261-11.039,30.499-18.079,51.716H73.519z"/>
	</g>
</g>
</svg>
